# xmcd
#
# Track frame offsets:
#	150
#	14894
#	26551
#	34835
#	56578
#	63812
#	71975
#	78959
#	86532
#	93340
#	99128
#	102515
#	111041
#	119678
#
# Disc length: 1760 seconds
#
# Revision: 0
# Processed by: cddbd v1.5.2PL0 Copyright (c) Steve Scherf et al.
# Submitted via: EasyCDDAExtractor 15.2.5.1
#
DISCID=b706de0e
DTITLE=Владимир Высоцкий - Больно мне за наш СССР...
DYEAR=2011
DGENRE=Chanson
TTITLE0=Песня командировочного
TTITLE1=Поездка в город
TTITLE2=Песенка про йога
TTITLE3=Я вчера закончил
TTITLE4=Утренняя гимнастика
TTITLE5=Перед выездом в
TTITLE6=Письмо к другу
TTITLE7=Возле города Пекина
TTITLE8=Я был слесарь
TTITLE9=У домашних и хищных
TTITLE10=Потеряю истиную веру
TTITLE11=Я счас взорвусь
TTITLE12=Не покупают никакой
TTITLE13=Маски
EXTD=
EXTT0=
EXTT1=
EXTT2=
EXTT3=
EXTT4=
EXTT5=
EXTT6=
EXTT7=
EXTT8=
EXTT9=
EXTT10=
EXTT11=
EXTT12=
EXTT13=
PLAYORDER=
